<mxfile host="app.diagrams.net" modified="2023-11-07T19:38:15.059Z" agent="Mozilla/5.0 (Windows NT 10.0; Win64; x64) AppleWebKit/537.36 (KHTML, like Gecko) Chrome/118.0.0.0 Safari/537.36" version="22.0.8" etag="fTipxcLrQ92R6x3UMbHq" type="github">
  <diagram name="Page-1" id="umD6lygmCDXEA9ocFcDk">
    <mxGraphModel>
      <root>
        <mxCell id="0" />
        <mxCell id="1" parent="0" />
      </root>
    </mxGraphModel>
  </diagram>
</mxfile>
